<?xml version="1.0" encoding="utf-8"?>
<!-- Generator: Adobe Illustrator 27.7.0, SVG Export Plug-In . SVG Version: 6.00 Build 0)  -->
<svg version="1.1" xmlns="http://www.w3.org/2000/svg" xmlns:xlink="http://www.w3.org/1999/xlink" x="0px" y="0px"
	 viewBox="0 0 657 657.5" style="enable-background:new 0 0 657 657.5;" xml:space="preserve">
<style type="text/css">
	.st0{fill:currentColor;}
</style>
<g id="Layer_2">
	<g>
		<g>
			<path class="st0" d="M322.5,655.92c-84.85-1.65-164.65-35.62-224.72-95.69C36.01,498.46,2,416.34,2,329S36.01,159.54,97.78,97.78
				C157.85,37.7,237.65,3.73,322.5,2.08v13C152.9,18.56,15,159.27,15,329c0,169.73,137.9,310.44,307.5,313.91V655.92z"/>
		</g>
		<g>
			<path class="st0" d="M337.5,642.89C506,638.38,643,497.67,643,329S506,19.62,337.5,15.11v-13
				c84.07,2.13,163.15,36.09,222.72,95.67C621.99,159.54,656,241.66,656,329c0,87.34-34.01,169.46-95.78,231.22
				c-59.57,59.57-138.65,93.54-222.72,95.67V642.89z"/>
		</g>
	</g>
	<g>
		<g>
			<path class="st0" d="M624.95,325.5c-1.02-77.54-31.78-150.44-86.65-205.3C482.4,64.29,408.06,33.5,329,33.5
				s-153.4,30.79-209.3,86.7c-54.86,54.86-85.62,127.76-86.65,205.3h-13c1.02-81.02,33.13-157.18,90.46-214.5
				C168.87,52.64,246.46,20.5,329,20.5c82.54,0,160.13,32.14,218.5,90.5c57.32,57.32,89.43,133.48,90.46,214.5H624.95z"/>
		</g>
		<g>
			<path class="st0" d="M329,638c-82.54,0-160.13-32.14-218.5-90.5C54.99,491.98,22.94,418.31,20.21,340h13.01
				c2.72,74.84,33.42,145.24,86.48,198.3C175.6,594.21,249.94,625,329,625s153.4-30.79,209.3-86.7
				c53.06-53.06,83.76-123.47,86.48-198.3h13.01c-2.72,78.31-34.78,151.98-90.29,207.5C489.13,605.86,411.54,638,329,638z"/>
		</g>
	</g>
	<g>
		<path class="st0" d="M173.34,456.6l2.17-1.29c36.87-21.92,48-28.54,48.34-95.27v-12.29h-0.01V180.76l-0.15-0.15
			c-3.1-3.11-6.81-4.36-12.56-5.58c-1.36-0.24-2.82-0.46-4.49-0.67l-16.71-2.6v-9l111.4,0v8.99l-17.86,2.61
			c-8.11,1.35-13.69,2.47-17.31,5.46c-0.3,0.25-0.6,0.52-0.88,0.8l-0.15,0.15v104.18l0.51-0.01c6.17-0.12,13.35-0.27,20.63-0.43
			c16.08-0.35,32.72-0.71,40.32-0.71c7.95,0,26.75,0.4,43.34,0.76c6.58,0.14,12.94,0.28,18.38,0.39l0.51,0.01V180.78l-0.13-0.14
			c-3.14-3.54-8.97-4.73-18.2-6.27l-17.49-2.61v-9h109.5v9l-15.96,2.6c-7.52,1.51-12.33,2.68-15.9,6.25l-0.15,0.15v252.06l0.15,0.15
			c3.57,3.57,8.38,4.74,15.88,6.25l15.98,2.61v9h-109.5v-9l17.48-2.61c9.24-1.54,15.07-2.73,18.21-6.27l0.13-0.14V296.9l-0.52,0.02
			c-19.14,0.75-50.35,1.15-61.71,1.15c-11.2,0-41.15-0.38-60.94-1.15l-0.52-0.02v31.83c0,2.27,0,19.05,0,19.05l-0.04,0.47
			c-0.15,26.72-1.15,37.77-2.43,51.75l-0.19,2.09c-2.44,26.92-21.18,35.46-58.51,52.46c-7.57,3.45-16.14,7.35-25.42,11.8
			L173.34,456.6z"/>
	</g>
	<g>
		<g>
			<polygon class="st0" points="157.09,126.33 328.52,63.53 500.29,126.32 495.01,136.29 328.49,73.27 162.38,136.29 			"/>
		</g>
		<g>
			<polygon class="st0" points="169.5,153.23 169.49,134.33 487.9,134.33 487.9,153.23 			"/>
		</g>
	</g>
	<g>
		<polygon class="st0" points="207.91,125.44 328.5,83.54 449.36,125.44 		"/>
	</g>
</g>
<g id="Layer_3">
	<g>
		<g>
			<path class="st0" d="M414.78,537.23c15.72-2.01,31.31,1.26,46.99,1.27c3.03,0,6.07,1.18,9.1,1.87c0.58,0.13,1.21,0.42,1.15,1.23
				c-0.1,1.31-0.99,0.49-1.57,0.61c-3.84,0.79-7.69,1.56-11.51,2.47c-6.29,1.5-12.39-0.14-18.55-0.96c-2.14-0.28-4.2-1.22-7.08-0.71
				c5.81,1.49,11.09,2.37,16.44,3.37c-1.5,0.13-3,0.26-4.5,0.38c7.56,1.08,14.75-0.85,22.13-2.64c-1.08,1.44-4.43,2.94-7.81,3.65
				c-12.99,2.74-25.83,2.23-37.64-4.04c-8.19-4.35-15.72-3.4-23.59-0.09c-2.27,0.96-4.52,1.98-6.76,3.31
				c5.87-0.05,11.67,0.61,17.5,0.84c6.77,0.27,13.46,0.97,19.79,3.71c3.93,1.71,7.52,3.85,10.22,7.56
				c-12.28-5.43-24.98-8.44-38.5-7.01c12.84,0.24,25.08,2.57,35.98,10.13c-3.17,0.2-5.96-1.44-8.99-1.3
				c-5.44-1.98-11.17-2.46-16.8-3.47c5.57,1.4,11.03,3.35,16.86,3.41c4.16,2,8.85,2.16,13.1,3.81c0.37,0.14,0.83,0.06,1.08,1.1
				c-4.84-0.55-9.53-1.09-14.22-1.6c-4.95-0.54-9.87-1.05-14.71-2.42c-4.66-1.32-8.92-3.66-13.54-5.04
				c5.77,3.82,11.96,6.73,18.77,7.97c6.77,1.23,13.64,1.52,20.56,1.69c-2.61,1.33-5.56,1.21-8.28,1.38
				c-8.31,0.52-16.61,0.64-24.52-2.94c-4.86-2.2-9.05-5.34-13.35-8.36c-1.52-1.06-2.86-2.33-4.6-3.15
				c-4.35-2.06-4.31-2.15-7.77,2.02c7.34,0.06,12.67,3.55,16.74,9.19c1.29,1.79,3.49,2.55,5.1,4.47c-1.02,0.09-1.69,0.14-2.74,0.23
				c1.45,0.91,2.94,1.24,3.56,2.8c-6.12,1.5-11.29-1.79-16.71-3.31c-5.28-1.48-10.27-3.87-14.32-7.86c-2.61-2.58-5.7-2.03-8.72-0.83
				c-6.4,2.52-12.89,4.64-19.84,4.9c-3.29,0.12-5.8,2.12-8.52,3.54c-1.36,0.71-2.22,2.19-2.49,3.82c-0.2,1.23-0.41,2.48-0.46,3.72
				c-0.25,7.63,2.27,11.05,9.66,13.07c1.17,0.32,2.3,0.61,3.26,1.7c-12.02-0.52-23.99-0.1-36.39,0.35c0.81-1.62,1.98-1.73,2.97-1.93
				c2.72-0.54,4.96-2.14,7.41-3.24c1.44-0.65,2.37-2.05,2.86-3.58c1.02-3.26,1.04-6.64,0.47-9.93c-0.67-3.91-4.24-6.17-9.78-6.88
				c-7.29-0.93-14.24-2.91-21.02-5.54c-2.91-1.13-5.1-1.2-7.68,0.94c-6.86,5.71-15.27,8.2-23.63,10.68
				c-1.68,0.5-3.35,1.05-5.02,1.58c-0.25-0.83,0.84-0.83,0.93-1.62c-1.43-0.28-2.88,1.06-4.48-0.07c2-1.75,4.82-1.73,7.37-3.89
				c-2.74,0.82-4.76,1.43-6.77,2.03c7.48-5.04,11.98-14.78,23.01-14.18c-3.6-4.35-3.61-4.36-7.96-1.28
				c-8.85,6.27-17.93,12.03-29.06,13.34c-7.39,0.87-14.7,0.01-22.02-1.11c6.65-0.51,13.28-0.84,19.89-1.64
				c6.71-0.81,12.68-3.57,18.51-6.85c-6.63,2.59-13.38,4.7-20.46,5.49c-7.13,0.8-14.27,1.49-21.46,1.9
				c10.62-3.37,21.68-4.88,32.32-8.23c-8.58,1.75-17.15,3.5-25.73,5.25c10.81-7.54,22.88-10.48,35.79-10.5
				c-13.56-1.34-26.3,1.74-38.71,7.16c1.87-3.14,4.77-5.07,7.77-6.6c6.22-3.17,13.04-4.18,19.94-4.59
				c5.73-0.34,11.47-0.51,17.2-0.79c0.57-0.03,1.28,0.18,1.67-0.52c-7.19-6.36-19.29-7.47-28.85-2.7
				c-15.2,7.59-30.57,6.69-45.97,0.8c2.7-0.47,5.09,1.11,7.71,1.41c2.67,0.31,5.29,1.12,8.02,1.12c2.81,0,5.62,0,8.45-0.22
				c-9.79-0.72-19.18-3.37-28.83-5.32c3.13-2.58,11.33-3.6,28.91-3.88c9.7-0.16,19.32-3.63,29.15-0.65
				c-9.03-3.28-17.66-7.44-26.97-9.68c-0.09-1.15,1.42-0.3,1.42-0.81c-15.27-6.39-30.81-11.69-45.27-19.65
				c2.84-0.08,5.22,1.75,8.15,1.43c-1.97-0.86-3.93-1.73-6.64-2.91c7.18-1.36,13.38-0.42,19.57,1.34c4.71,1.34,8.1,4.52,11.44,7.78
				c3.55,3.47,7.18,6.78,12.07,8.49c-3.24-2.74-5.57-6.26-8.54-9.27c-6.38-6.49-14.59-9.33-22.66-12.5
				c-3.04-1.2-5.46-3.28-7.43-5.45c-4.21-4.63-7.91-9.78-9.12-16.6c2.86,1.45,5.44,2.76,8.13,4.13c1.19-1.82-1.29-2.93-0.72-4.86
				c5.93,1.85,11.42,4.53,16.3,8.36c6.37,4.99,10.84,11.24,12.41,19.38c0.21,1.11,1.23,2.2,2.14,3.02c3.8,3.4,6.64,7.62,9.79,11.54
				c2.76,3.43,6.04,5.83,10.17,7.38c-2.61-2.27-4.19-5.29-6.23-7.95c-3.62-4.7-4.88-10.19-5.85-15.77c-0.29-1.66-1.3-3.16-1.22-4.74
				c0.35-6.79,1.65-13.54,5.85-18.92c1.71-2.19,3.23-3.81,2.87-6.72c5.62,14.98,6.87,31,12.39,45.9
				c-2.72-14.59-5.43-29.19-10.35-43.16c1.81,0.45,1.78,0.47,2.95,2.06c1.84,2.49,3.6,5.15,4.9,7.85c3.83,7.99,7.66,16.1,7.57,25.33
				c-0.06,6.47,0.14,12.94-0.48,19.39c-0.2,2.08,1.63,2.43,2.84,3.24c1.02,0.68,2.18,1.19,3.32,1.66c1.06,0.43-2.3,2.08,0.55,1.87
				c1.13-0.08,2.34-0.59,3.38-0.35c3.29,0.76,6.45,1.98,10.31,3.76c-3.78-4.62-6.9-8.7-10.34-12.49c-1.22-1.35-1.98-2.84-2.83-4.34
				c-3.91-6.91-4.73-14.67-6.16-22.27c-0.77-4.06-2.45-7.94-2.63-13.12c4.45,5,6.15,10.48,8.59,15.6c-0.73-4.35,0.52-8.5,1.15-12.82
				c5.02,10.74,8.68,21.91,11.48,33.38c-0.35-13.22-5.61-24.89-11.99-37.04c1.99,1.2,3.04,2.09,3.88,3.39
				c3.07,4.78,5.94,9.61,7.92,15.01c1.53,4.15,3.26,8.26,8.31,9.94c2.69,0.9,3.87,4.51,7.04,5.82c-0.77-3.98-0.58-7.79-0.09-11.69
				c0.99,3.56,1.97,7.12,2.96,10.68c-0.03-3.87-1.09-7.54-2.1-12.03c3.12,4.18,5.03,7.98,5.74,12.5c0.67,4.31-0.18,8.52-0.17,12.77
				c0,1.21-1.48,2.91,0.88,3.63c0.46,0.14,0.08,0.57-0.09,0.74c-2.81,2.79-1.14,6.27-1.47,9.44c-0.13,1.24,0.71,1.55,1.62,1.87
				c2.14,0.75,4.26,1.53,6.53,2.35c0.45-1.27,0.02-2.39-0.43-3.51c-1.46-3.61-2.35-7.4-3.86-11.02c-2.3-5.55-1.81-11.04,1.24-16.4
				c1.4-2.46,2.81-5.1,2.74-8.22c2.24,4.56,4.05,9.25,6.08,13.82c3.03,6.81,2.23,13.22,0.28,19.84c-0.66,2.22-2.29,3.94-3.49,6.09
				c25.89,8.78,51.65,7.67,77.51-0.26c0.01-1.48-1.85-2.16-2.61-3.53c-3.84-6.91-4.02-14.28-1.35-21.42
				c0.93-2.5,2.92-5.07,4.76-7.21c1.2-1.4,0.58-2.82,1.38-4c0.52-0.76,0.85-1.81,1.92-1.78c1.16,0.04,0.91,1.19,1.15,1.93
				c1.87,5.79,2.92,11.86,2.77,17.8c-0.11,4.07-2.37,8.16-4.04,12.08c-0.76,1.78-2.47,3.88-1.45,5.24c0.81,1.07,3.05-0.89,4.7-1.29
				c3.87-0.92,4.21-3.93,3.96-6.93c-0.56-6.73,2.05-12.15,5.97-17.36c2.68-3.56,6.06-6.21,9.42-8.96c0.44-0.36,0.9-1.05,1.56-0.46
				c0.44,0.4,0.25,0.97-0.02,1.44c-2.27,4.02-3.18,8.5-4.07,12.93c-1.07,5.28-4.21,9.17-7.89,12.69c-1.06,1.02-1.92,2.05-3.09,3.82
				c5.44-2.46,10.29-4.66,15.14-6.86c1.11-0.5,0.95-1.6,0.92-2.46c-0.09-3.23-0.18-6.47-0.52-9.69c-0.85-7.99,0.14-15.49,5.18-22.11
				c0.79-1.04,1.12-2.45,1.53-3.73c1.63-5.02,4.95-9.04,7.84-13.32c0.22-0.32,1-2.44,1.52-0.02c-5.4,10.43-9.76,21.2-10.45,33.12
				c2.81-10.76,6.38-21.28,10.36-31.66c0.17-0.45,0.02-1.01,0.02-1.52c2.46,1.74,1.51,4.53,1.79,6.78c0.31,2.47,1.34,5.03,0.18,7.64
				c2.49-4.94,4.04-10.26,7.64-14.45c0.28,0.11,0.57,0.21,0.85,0.32c-1.31,6.44-2.43,12.92-3.99,19.31
				c-1.18,4.87-1.36,10.18-4.71,14.29c-4.53,5.55-8.78,11.35-13.76,16.53c0.8,0.54,1.43-0.05,2.07-0.3
				c3.47-1.34,6.82-3.04,10.78-2.19c0.9,0.19,2.07-0.05,2.89-0.85C414.87,537.14,414.78,537.23,414.78,537.23z M275.03,548.28
				c0.3-0.22,0.6-0.44,0.9-0.66c-9.6-6.79-11.69-17.25-14.2-27.55c-0.22,2.88-0.15,5.69-0.24,8.49c-0.09,2.91-0.51,5.82-0.42,8.73
				c0.06,1.94-0.47,4.35,1.95,5.49C267,544.65,271.02,546.45,275.03,548.28z M363.9,556.91c-24.69,6.78-49.3,7.04-73.98-0.11
				c6.74,3.11,13.73,5.8,21.02,5.88c11.75,0.12,23.54,0.81,35.27-0.51C352.36,561.48,358.18,559.41,363.9,556.91z M219.9,484.6
				c-0.83,6.33,0.23,12.62,0.91,18.93c0.82,7.61,3.54,14.61,7.17,21.28c0.81,1.48,1.61,3.06,3.63,3.29
				C222.47,514.96,220.93,499.9,219.9,484.6z M263.5,518.23c5.32,4.01,8.61,8.41,11.07,13.52c0.67,1.39,0.71,3.99,2.25,3.82
				c1.44-0.15,0.42-2.68,0.93-4.13c0.83-2.4,0.07-4.54-2.41-5.68c-1.47-0.67-3.02-0.73-4.44-2.01
				C268.85,521.91,267.42,519.07,263.5,518.23z M286.67,522.18c-0.63,6.04-0.12,12.03,1.79,17.87
				C287.79,534.12,287.41,528.16,286.67,522.18z M369.44,524.07c-1.51,4.23-2.01,13.87-1.09,17.38
				C369.16,535.95,369.26,530.28,369.44,524.07z M189.8,493.74c-4.06-3.64-8.11-7.25-12.25-10.76
				C181.08,487.24,185.13,490.88,189.8,493.74z M224.87,542.39c-5.64,0.8-11.27,1.6-16.91,2.4
				C213.75,545.16,219.35,544.05,224.87,542.39z M379.74,552.66c-3.8,0.01-7.2,1.18-10.07,3.8
				C372.85,554.68,376.95,555.63,379.74,552.66z M182.65,495.85c-3.28-3.9-6.57-7.81-9.85-11.71
				C174.7,489.19,178.91,492.37,182.65,495.85z M245.62,507.94c0.83,8.28,1.75,11.43,4.55,15.65
				C248.9,518.1,246.49,513.25,245.62,507.94z M276.24,553.11c2.92,1.4,5.72,3.09,9.1,3.12
				C282.74,554.02,279.79,552.74,276.24,553.11z M408.28,522.12c2.16-4.26,2.86-8.99,3.71-13.69
				C410.35,512.85,409.72,517.53,408.28,522.12z M334.73,565.65c-4.41-0.98-8.77-0.36-13.14,0
				C325.96,565.65,330.34,565.65,334.73,565.65z M461.23,541.69c-2.83-0.32-5.33-0.1-7.72,1.02
				C456.02,542.59,458.64,543.23,461.23,541.69z M194.7,541.84c2.38,0.08,4.67,1.56,7.67,0.48
				C199.5,541.29,197.11,541.49,194.7,541.84z"/>
			<path class="st0" d="M479.8,484.21c3.51-1.66,7.03-3.32,10.78-5.09c-1.46,6.03-4.85,10.88-8.55,15.55c-4.71,5.92-11.58,8.12-18.33,10.52
				c-4.79,1.7-8.56,5-12.31,8.25c-3.19,2.76-6.18,5.76-9.85,9.22c3.55,0.48,5.02-1.47,6.72-2.48c2.18-1.31,4.22-3.1,5.83-5.08
				c5.38-6.63,12.7-8.98,20.71-10.02c3.56-0.46,7.12-0.94,11.39,0.88c-4.93,1-9.49,0.68-13.6,4.56c4.08-1.67,7.2-3.71,11.77-2.22
				c-14.2,8.95-30.06,12.53-44.87,18.71c10.01-0.54,20.06,0.53,30.05-1.41c6.66-1.3,13.43-1.58,20.93-0.26
				c-6.47,2.87-12.56,4.16-18.88,3.83c-9.16-0.47-18.36-0.25-27.49-1.39c-3.67-0.46-7.14,0.72-10.25,2.14
				c-5.88,2.68-12.07,4.36-18.06,6.65c-0.36,0.14-0.67,0.44-1,0.66c0,0,0.09-0.08,0.09-0.08c-1.04,0-2.08,0-3.52,0
				c1.8-1.61,3.64-2.55,5.49-3.01c2.72-0.67,3.27-2.22,3.25-4.74c-0.06-7.4-0.37-14.8,0.38-22.21c0.86-8.51,4.56-15.65,9.24-22.55
				c2.39-3.52,4.38-7.28,8.22-10.07c1.03,18.68-1.45,36.44-10.91,52.8c3.02-2.46,3.21-2.79,4.76-6.26
				c4.85-10.85,7.02-22.24,6.96-34.1c-0.01-2.44,0-4.89,0-7.76c11.07,14.24,8.9,30.61-6.07,48.27c4.92-0.46,7.01-4.51,9.71-7.57
				c3.48-3.96,6.84-8.02,10.64-11.69c1.18-1.15,1.54-2.74,1.81-4.25c1.63-9.07,8.11-14.44,14.99-19.33
				c3.18-2.26,6.95-3.68,10.46-5.46c0.72-0.37,1.66-0.95,2.22-0.05c0.42,0.67-0.62,1.19-0.83,1.77c-0.46,1.23-2.4,1.6-1.87,3.32
				c-0.47-0.32-0.99-0.43-1.44-0.05c-4.84,4.13-9.66,8.27-14.49,12.41c1.83-0.03,2.77-1.35,4.01-2.19
				C472.24,491.45,475.25,486.92,479.8,484.21z M425.8,519.23c3.45-13.42,5.96-27.04,9.99-40.29
				C430.79,491.96,426.92,505.27,425.8,519.23z M483.74,486.09c-4.27,3.53-7,8.41-10.98,12.23
				C477.78,495.45,480.26,490.35,483.74,486.09z"/>
		</g>
	</g>
</g>
</svg>
